<svg width="16" height="17" viewBox="0 0 16 17" fill="none" xmlns="http://www.w3.org/2000/svg">
<path d="M14.5037 14.2377L12.2121 11.9973L12.1584 11.9156C12.0585 11.8161 11.922 11.7601 11.7794 11.7601C11.6369 11.7601 11.5003 11.8161 11.4005 11.9156C9.45297 13.7023 6.45208 13.7994 4.38798 12.1425C2.32389 10.4857 1.83709 7.58895 3.25044 5.37349C4.66378 3.15802 7.53869 2.31127 9.96855 3.3948C12.3984 4.47832 13.6292 7.1559 12.8447 9.65177C12.7882 9.83208 12.8343 10.0282 12.9658 10.1662C13.0973 10.3041 13.294 10.3631 13.482 10.3208C13.67 10.2785 13.8206 10.1413 13.8771 9.961C14.8149 6.99914 13.3985 3.81174 10.5441 2.46075C7.68964 1.10975 4.25387 2.00059 2.45935 4.55699C0.664827 7.11338 1.0501 10.5681 3.36593 12.6864C5.68177 14.8046 9.23317 14.9506 11.7227 13.03L13.7517 15.0137C13.9613 15.2177 14.3001 15.2177 14.5096 15.0137C14.719 14.8068 14.719 14.4738 14.5096 14.2669L14.5037 14.2377Z" fill="#667085"/>
</svg>
